# xmcd CD database file
#
# Track frame offsets:
#	150
#	30443
#	62170
#	91684
#	117128
#	140622
#	155936
#	181877
#	204146
#	240878
#	291979
#	311581
#
# Disc length: 4454 seconds
#
# Revision: 0
# Processed by: cddbd v1.5.2PL0 Copyright (c) Steve Scherf et al.
# Submitted via: CDex 1.70beta2
#
DISCID=9c11640c
DTITLE=Barney Kessel - Quartet - Quintet
DYEAR=1958
DGENRE=Jazz
TTITLE0=Yardbird Suite
TTITLE1=There will never be another you
TTITLE2=Bow jest
TTITLE3=Sweet Sue
TTITLE4=Up Blues
TTITLE5=Like someone in love
TTITLE6=Love is just around the corner
TTITLE7=Thou swell
TTITLE8=The awful truth
TTITLE9=Let´s cook
TTITLE10=Time remembered
TTITLE11=Just in time
EXTD=YEAR: 1958
EXTT0=
EXTT1=
EXTT2=
EXTT3=
EXTT4=
EXTT5=
EXTT6=
EXTT7=
EXTT8=
EXTT9=
EXTT10=
EXTT11=
PLAYORDER=
